<svg xmlns="http://www.w3.org/2000/svg" viewBox="0 0 100 100" fill="none">
  <circle cx="50" cy="50" r="48" fill="#0f172a" />
  <path
    d="M70 30 C70 35.5 65.5 40 60 40 C58 40 56 39.5 54.5 38.5 L 42 46 C 42.5 47.2 43 48.6 43 50 C 43 51.4 42.5 52.8 42 54 L 54.5 61.5 C 56 60.5 58 60 60 60 C 65.5 60 70 64.5 70 70 C 70 75.5 65.5 80 60 80 C 54.5 80 50 75.5 50 70 C 50 68.6 50.5 67.2 51 66 L 38.5 58.5 C 37 59.5 35 60 33 60 C 27.5 60 23 55.5 23 50 C 23 44.5 27.5 40 33 40 C 35 40 37 40.5 38.5 41.5 L 51 34 C 50.5 32.8 50 31.4 50 30 C 50 24.5 54.5 20 60 20 C 65.5 20 70 24.5 70 30 Z"
    fill="#38bdf8"
  />
  <path
    d="M52 42 L 58 42 L 55 50 L 62 50 L 48 64 L 51 54 L 44 54 Z"
    fill="#fbbf24"
    stroke="#0f172a"
    stroke-width="2"
  />
</svg>